<svg fill="currentColor" id="id" height="800px" width="800px" version="1.1" xmlns="http://www.w3.org/2000/svg" xmlns:xlink="http://www.w3.org/1999/xlink" viewBox="0 0 490.667 490.667" xml:space="preserve">
  <g>
    <g>
      <g>
        <path d="M320.683,220.283c2.027,2.325,4.949,3.648,8.021,3.648h137.088c3.435,0,6.656-1.643,8.661-4.437
          c2.005-2.773,2.56-6.357,1.451-9.621l-28.437-85.333c-1.451-4.331-5.525-7.275-10.112-7.275H254.059
          c-4.181,0-7.979,2.453-9.707,6.251c-1.749,3.819-1.067,8.277,1.685,11.435L320.683,220.283z"/>
        <path d="M480.021,245.264H314.197L168.043,78.245c-4.053-4.651-12.011-4.651-16.064,0l-45.291,51.776v-23.424
          c0-5.888-4.779-10.667-10.667-10.667H53.355c-5.888,0-10.667,4.779-10.667,10.667v96c0,0.171,0.085,0.299,0.085,0.448
          L2.645,248.891C0.939,250.832,0,253.328,0,255.909v149.333c0,5.888,4.779,10.667,10.667,10.667h96v-53.333
          c0-29.397,23.936-53.333,53.333-53.333s53.333,23.936,53.333,53.333v53.333h85.333v-21.333H448v21.333h32
          c5.888,0,10.667-4.779,10.667-10.667V255.909C490.688,250.043,485.909,245.264,480.021,245.264z M234.688,277.264
          c0,5.888-4.779,10.667-10.667,10.667h-128c-5.888,0-10.667-4.779-10.667-10.667v-42.667c0-5.888,4.779-10.667,10.667-10.667h128
          c5.888,0,10.667,4.779,10.667,10.667V277.264z M448.021,373.264H298.688v-21.333h149.333V373.264z M448.021,330.597H298.688
          v-10.667c0-5.888,4.779-10.667,10.667-10.667h128c5.888,0,10.667,4.779,10.667,10.667V330.597z"/>
      </g>
    </g>
  </g>
</svg>
